
g mesh905816428

# Vertex Positions:
v -0.338 0.338 -1.69
v 0.338 0 -0.338
v -1.69 0.338 1.69
v 1.69 0.338 0.338
v 0.338 0.676 -0.338

# Vertex Texture Coordinates:
vt -0.16925 0.09814 
vt -0.01438 0.10072 
vt 0.07136 -0.17505 
vt -0.10666 0.16185 
vt 0.0206 0.07355 
vt -0.07075 -0.20041 
vt -0.02511 -0.07805 
vt -0.00837 -0.14354 
vt -0.16319 -0.14822 
vt 0.06929 0.0495 
vt 0.22093 0.01791 
vt -0.06666 -0.20529 
vt -0.09766 0.05549 
vt 0.00165 0.17436 
vt 0.06301 -0.18447 
vt 0.06306 -0.03069 
vt 0.17605 0.07526 
vt 0.11895 -0.06872 

# Vertex Surface Normals:
vn -0.26612 -0.95804 -0.10645
vn 0.10645 0.95804 0.26612
vn 0.89443 0 -0.44721
vn -0.26612 0.95804 -0.10645
vn 0.10645 -0.95804 0.26612
vn 0.44721 0 -0.89443

# Faces:
usemtl mat5
f 1/1/1 2/2/1 3/3/1
f 4/4/2 5/5/2 3/6/2
f 5/7/3 2/8/3 1/9/3
f 5/10/4 1/11/4 3/12/4
f 2/13/5 4/14/5 3/15/5
f 5/16/6 4/17/6 2/18/6
